<svg id="mermaidChart0" width="1200" height="783.1692032229187" viewBox="-50 -10 750 486" style="width: 1192; height: 783.1692032229187;" version="1.1" xmlns="http://www.w3.org/2000/svg" xmlns:xlink="http://www.w3.org/1999/xlink"><style type="text/css" title="mermaid-svg-internal-css">/*  */
.actor { stroke: #ccccff; fill: #ececff;}
text.actor { fill: #000000; stroke: none;}
.actor-line { stroke: #808080;}
.messageline0 { stroke-width: 1.5px; stroke: #333333;}
.messageline1 { stroke-width: 1.5px; stroke: #333333;}
#arrowhead { fill: #333333;}
#crosshead path { fill: #333333 !important; stroke: #333333 !important;}
.messagetext { fill: #333333; stroke: none;}
.note { stroke: #aaaa33; fill: #fff5ad;}
.notetext { fill: #000000; stroke: none; font-family: 'trebuchet ms', verdana, arial; font-size: 14px;}
/*  */
</style><g/><g><line id="actor0" x1="75" y1="5" x2="75" y2="475" class="actor-line" stroke-width="0.5px" stroke="#999"/><rect x="0" y="0" fill="#eaeaea" stroke="#666" width="150" height="65" rx="3" ry="3" class="actor"/><text x="75" y="37.5" class="actor" style="text-anchor: middle;">Alice</text></g><g><line id="actor1" x1="275" y1="5" x2="275" y2="475" class="actor-line" stroke-width="0.5px" stroke="#999"/><rect x="200" y="0" fill="#eaeaea" stroke="#666" width="150" height="65" rx="3" ry="3" class="actor"/><text x="275" y="37.5" class="actor" style="text-anchor: middle;">Bob</text></g><g><line id="actor2" x1="475" y1="5" x2="475" y2="475" class="actor-line" stroke-width="0.5px" stroke="#999"/><rect x="400" y="0" fill="#eaeaea" stroke="#666" width="150" height="65" rx="3" ry="3" class="actor"/><text x="475" y="37.5" class="actor" style="text-anchor: middle;">John</text></g><defs><marker id="arrowhead" refX="5" refY="2" markerWidth="6" markerHeight="4" orient="auto"><path d="M 0,0 V 4 L6,2 Z"/></marker></defs><defs><marker id="crosshead" markerWidth="15" markerHeight="8" orient="auto" refX="16" refY="4"><path fill="black" stroke="#000000" stroke-width="1px" d="M 9,2 V 6 L16,4 Z" style="stroke-dasharray: 0px, 0px;"/><path fill="none" stroke="#000000" stroke-width="1px" d="M 0,1 L 6,7 M 6,1 L 0,7" style="stroke-dasharray: 0px, 0px;"/></marker></defs><g><text x="175" y="93" class="messageText" style="text-anchor: middle;">Hello Bob, how are you?</text><line x1="75" y1="100" x2="275" y2="100" class="messageLine0" stroke-width="2" stroke="black" marker-end="url(#arrowhead)" style="fill: none;"/></g><g><text x="375" y="128" class="messageText" style="text-anchor: middle;">How about you John?</text><line x1="275" y1="135" x2="475" y2="135" class="messageLine1" stroke-width="2" stroke="black" marker-end="url(#arrowhead)" style="stroke-dasharray: 3px, 3px; fill: none;"/></g><g><text x="175" y="163" class="messageText" style="text-anchor: middle;">I am good thanks!</text><line x1="275" y1="170" x2="75" y2="170" class="messageLine1" stroke-width="2" stroke="black" marker-end="url(#crosshead)" style="stroke-dasharray: 3px, 3px; fill: none;"/></g><g><text x="375" y="198" class="messageText" style="text-anchor: middle;">I am good thanks!</text><line x1="275" y1="205" x2="475" y2="205" class="messageLine0" stroke-width="2" stroke="black" marker-end="url(#crosshead)" style="fill: none;"/></g><g><rect x="500" y="215" fill="#EDF2AE" stroke="#666" width="150" height="105" rx="0" ry="0" class="note"/><text x="516" y="239" fill="black" class="noteText"><tspan x="516">Bob thinks a</tspan><tspan dy="17" x="516">long long time,</tspan><tspan dy="17" x="516">so long that the</tspan><tspan dy="17" x="516">text does not fit</tspan><tspan dy="17" x="516">on a row.</tspan></text></g><g><text x="175" y="348" class="messageText" style="text-anchor: middle;">Checking with John...</text><line x1="275" y1="355" x2="75" y2="355" class="messageLine1" stroke-width="2" stroke="black" style="stroke-dasharray: 3px, 3px; fill: none;"/></g><g><text x="275" y="383" class="messageText" style="text-anchor: middle;">Yes... John, how are you?</text><line x1="75" y1="390" x2="475" y2="390" class="messageLine0" stroke-width="2" stroke="black" style="fill: none;"/></g><g><rect x="0" y="410" fill="#eaeaea" stroke="#666" width="150" height="65" rx="3" ry="3" class="actor"/><text x="75" y="447.5" class="actor" style="text-anchor: middle;">Alice</text></g><g><rect x="200" y="410" fill="#eaeaea" stroke="#666" width="150" height="65" rx="3" ry="3" class="actor"/><text x="275" y="447.5" class="actor" style="text-anchor: middle;">Bob</text></g><g><rect x="400" y="410" fill="#eaeaea" stroke="#666" width="150" height="65" rx="3" ry="3" class="actor"/><text x="475" y="447.5" class="actor" style="text-anchor: middle;">John</text></g></svg>