<?xml version='1.0' encoding='UTF-8'?>
<!DOCTYPE svg PUBLIC "-//W3C//DTD SVG 1.0//EN" "http://www.w3.org/TR/2001/REC-SVG-20010904/DTD/svg10.dtd">
<svg viewBox="0 0 640 801" xmlns="http://www.w3.org/2000/svg" xmlns:inkspace="http://www.inkscape.org/namespaces/inkscape" xmlns:xlink="http://www.w3.org/1999/xlink">
  <defs id="defs_block">
    <filter height="1.504" id="filter_blur" inkspace:collect="always" width="1.1575" x="-0.07875" y="-0.252">
      <feGaussianBlur id="feGaussianBlur3780" inkspace:collect="always" stdDeviation="4.2" />
    </filter>
  </defs>
  <title>blockdiag</title>
  <desc>seqdiag {
  // normal edge and doted edge
  A -&gt; B [diagonal, label = "normal edge"];
  B --&gt; C [label = "dotted edge"];

  B &lt;-- C [label = "return dotted edge"];
  A &lt;- B [label = "return edge"];

  // asynchronus edge
  A -&gt;&gt; B [label = "asynchronus edge"];
  B --&gt;&gt; C [label = "asynchronus dotted edge"];

  B &lt;&lt;-- C [label = "return asynchronus doted edge"];
  A &lt;&lt;- B [label = "return asynchronus edge"];

  // self referenced edge
  A -&gt; A [label = "self reference edge"];
}</desc>
  <rect fill="rgb(0,0,0)" height="638" style="filter:url(#filter_blur);opacity:0.7;fill-opacity:1" width="8" x="127" y="141" />
  <rect fill="rgb(0,0,0)" height="218" style="filter:url(#filter_blur);opacity:0.7;fill-opacity:1" width="8" x="319" y="148" />
  <rect fill="rgb(0,0,0)" height="208" style="filter:url(#filter_blur);opacity:0.7;fill-opacity:1" width="8" x="319" y="431" />
  <rect fill="rgb(0,0,0)" height="65" style="filter:url(#filter_blur);opacity:0.7;fill-opacity:1" width="8" x="511" y="236" />
  <rect fill="rgb(0,0,0)" height="78" style="filter:url(#filter_blur);opacity:0.7;fill-opacity:1" width="8" x="511" y="496" />
  <rect fill="rgb(0,0,0)" height="40" stroke="rgb(0,0,0)" style="filter:url(#filter_blur);opacity:0.7;fill-opacity:1" width="128" x="67" y="46" />
  <rect fill="rgb(0,0,0)" height="40" stroke="rgb(0,0,0)" style="filter:url(#filter_blur);opacity:0.7;fill-opacity:1" width="128" x="259" y="46" />
  <rect fill="rgb(0,0,0)" height="40" stroke="rgb(0,0,0)" style="filter:url(#filter_blur);opacity:0.7;fill-opacity:1" width="128" x="451" y="46" />
  <path d="M 128 80 L 128 789" fill="none" stroke="rgb(0,0,0)" stroke-dasharray="8 4" />
  <rect fill="moccasin" height="638" stroke="rgb(0,0,0)" width="8" x="124" y="135" />
  <path d="M 320 80 L 320 789" fill="none" stroke="rgb(0,0,0)" stroke-dasharray="8 4" />
  <rect fill="moccasin" height="218" stroke="rgb(0,0,0)" width="8" x="316" y="142" />
  <rect fill="moccasin" height="208" stroke="rgb(0,0,0)" width="8" x="316" y="425" />
  <path d="M 512 80 L 512 789" fill="none" stroke="rgb(0,0,0)" stroke-dasharray="8 4" />
  <rect fill="moccasin" height="65" stroke="rgb(0,0,0)" width="8" x="508" y="230" />
  <rect fill="moccasin" height="78" stroke="rgb(0,0,0)" width="8" x="508" y="490" />
  <rect fill="rgb(255,255,255)" height="40" stroke="rgb(0,0,0)" width="128" x="64" y="40" />
  <text fill="rgb(0,0,0)" font-family="sans-serif" font-size="11" font-style="normal" font-weight="normal" text-anchor="middle" textLength="6" x="128" y="66">A</text>
  <rect fill="rgb(255,255,255)" height="40" stroke="rgb(0,0,0)" width="128" x="256" y="40" />
  <text fill="rgb(0,0,0)" font-family="sans-serif" font-size="11" font-style="normal" font-weight="normal" text-anchor="middle" textLength="6" x="320" y="66">B</text>
  <rect fill="rgb(255,255,255)" height="40" stroke="rgb(0,0,0)" width="128" x="448" y="40" />
  <text fill="rgb(0,0,0)" font-family="sans-serif" font-size="11" font-style="normal" font-weight="normal" text-anchor="middle" textLength="6" x="512" y="66">C</text>
  <path d="M 136 135 L 312 165" fill="none" stroke="rgb(0,0,0)" />
  <polygon fill="rgb(0,0,0)" points="304,161 312,165 304,169" stroke="rgb(0,0,0)" />
  <path d="M 328 230 L 504 230" fill="none" stroke="rgb(0,0,0)" stroke-dasharray="4" />
  <polygon fill="rgb(0,0,0)" points="496,226 504,230 496,234" stroke="rgb(0,0,0)" />
  <path d="M 328 295 L 504 295" fill="none" stroke="rgb(0,0,0)" stroke-dasharray="4" />
  <polygon fill="rgb(0,0,0)" points="336,291 328,295 336,299" stroke="rgb(0,0,0)" />
  <path d="M 136 360 L 312 360" fill="none" stroke="rgb(0,0,0)" />
  <polygon fill="rgb(0,0,0)" points="144,356 136,360 144,364" stroke="rgb(0,0,0)" />
  <path d="M 136 425 L 312 425" fill="none" stroke="rgb(0,0,0)" />
  <path d="M 304 421 L 312 425" fill="none" stroke="rgb(0,0,0)" />
  <path d="M 312 425 L 304 429" fill="none" stroke="rgb(0,0,0)" />
  <path d="M 328 490 L 504 490" fill="none" stroke="rgb(0,0,0)" stroke-dasharray="4" />
  <path d="M 496 486 L 504 490" fill="none" stroke="rgb(0,0,0)" />
  <path d="M 504 490 L 496 494" fill="none" stroke="rgb(0,0,0)" />
  <path d="M 328 568 L 504 568" fill="none" stroke="rgb(0,0,0)" stroke-dasharray="4" />
  <path d="M 336 564 L 328 568" fill="none" stroke="rgb(0,0,0)" />
  <path d="M 328 568 L 336 572" fill="none" stroke="rgb(0,0,0)" />
  <path d="M 136 633 L 312 633" fill="none" stroke="rgb(0,0,0)" />
  <path d="M 144 629 L 136 633" fill="none" stroke="rgb(0,0,0)" />
  <path d="M 136 633 L 144 637" fill="none" stroke="rgb(0,0,0)" />
  <path d="M 136 711 L 224 711" fill="none" stroke="rgb(0,0,0)" />
  <path d="M 224 711 L 224 727" fill="none" stroke="rgb(0,0,0)" />
  <path d="M 224 727 L 136 727" fill="none" stroke="rgb(0,0,0)" />
  <polygon fill="rgb(0,0,0)" points="144,723 136,727 144,731" stroke="rgb(0,0,0)" />
  <text fill="rgb(0,0,0)" font-family="sans-serif" font-size="11" font-style="normal" font-weight="normal" text-anchor="middle" textLength="66" x="173" y="133">normal edge</text>
  <text fill="rgb(0,0,0)" font-family="sans-serif" font-size="11" font-style="normal" font-weight="normal" text-anchor="middle" textLength="66" x="365" y="228">dotted edge</text>
  <text fill="rgb(0,0,0)" font-family="sans-serif" font-size="11" font-style="normal" font-weight="normal" text-anchor="middle" textLength="108" x="450" y="293">return dotted edge</text>
  <text fill="rgb(0,0,0)" font-family="sans-serif" font-size="11" font-style="normal" font-weight="normal" text-anchor="middle" textLength="66" x="279" y="358">return edge</text>
  <text fill="rgb(0,0,0)" font-family="sans-serif" font-size="11" font-style="normal" font-weight="normal" text-anchor="middle" textLength="96" x="188" y="423">asynchronus edge</text>
  <text fill="rgb(0,0,0)" font-family="sans-serif" font-size="11" font-style="normal" font-weight="normal" text-anchor="middle" textLength="138" x="401" y="488">asynchronus dotted edge</text>
  <text fill="rgb(0,0,0)" font-family="sans-serif" font-size="11" font-style="normal" font-weight="normal" text-anchor="middle" textLength="168" x="420" y="553">return asynchronus doted edg</text>
  <text fill="rgb(0,0,0)" font-family="sans-serif" font-size="11" font-style="normal" font-weight="normal" text-anchor="middle" textLength="6" x="501" y="566">e</text>
  <text fill="rgb(0,0,0)" font-family="sans-serif" font-size="11" font-style="normal" font-weight="normal" text-anchor="middle" textLength="138" x="243" y="631">return asynchronus edge</text>
  <text fill="rgb(0,0,0)" font-family="sans-serif" font-size="11" font-style="normal" font-weight="normal" text-anchor="middle" textLength="108" x="190" y="696">self reference edg</text>
  <text fill="rgb(0,0,0)" font-family="sans-serif" font-size="11" font-style="normal" font-weight="normal" text-anchor="middle" textLength="6" x="139" y="709">e</text>
</svg>
