<?xml version='1.0' encoding='UTF-8'?>
<!DOCTYPE svg PUBLIC "-//W3C//DTD SVG 1.0//EN" "http://www.w3.org/TR/2001/REC-SVG-20010904/DTD/svg10.dtd">
<svg viewBox="0 0 832 598" xmlns="http://www.w3.org/2000/svg" xmlns:inkspace="http://www.inkscape.org/namespaces/inkscape" xmlns:xlink="http://www.w3.org/1999/xlink">
  <defs id="defs_block">
    <filter height="1.504" id="filter_blur" inkspace:collect="always" width="1.1575" x="-0.07875" y="-0.252">
      <feGaussianBlur id="feGaussianBlur3780" inkspace:collect="always" stdDeviation="4.2" />
    </filter>
  </defs>
  <title>blockdiag</title>
  <desc>seqdiag {
  // Do not show activity line
  activation = none;

  // Change note color
  default_note_color = lightblue;

  maintainer -&gt;   github [label = "merge PR"];
                  github  -&gt; travis [label = "merge webhook", note = "build\npackages"];
		             travis -&gt;&gt;  deb.machinekit.io [label = "upload deb"];
                             travis &lt;-   deb.machinekit.io [label = "successful upload", note = "new\npackage\nonline"];
  //deb.machinekit.io -&gt; users [label = "apt-get &lt;package&gt;"];
                  github  &lt;-  travis [label = "set commit status"];
  maintainer &lt;-   github  [label = "merge result visible"];
  github [label = "github.com/\nmachinekit/\nmachinekit"];
}</desc>
  <polygon fill="rgb(0,0,0)" points="531,191 595,191 603,199 603,219 531,219 531,191" stroke="rgb(0,0,0)" style="filter:url(#filter_blur);opacity:0.7;fill-opacity:1" />
  <polygon fill="rgb(0,0,0)" points="723,339 781,339 789,347 789,380 723,380 723,339" stroke="rgb(0,0,0)" style="filter:url(#filter_blur);opacity:0.7;fill-opacity:1" />
  <rect fill="rgb(0,0,0)" height="40" stroke="rgb(0,0,0)" style="filter:url(#filter_blur);opacity:0.7;fill-opacity:1" width="128" x="67" y="46" />
  <rect fill="rgb(0,0,0)" height="40" stroke="rgb(0,0,0)" style="filter:url(#filter_blur);opacity:0.7;fill-opacity:1" width="128" x="259" y="46" />
  <rect fill="rgb(0,0,0)" height="40" stroke="rgb(0,0,0)" style="filter:url(#filter_blur);opacity:0.7;fill-opacity:1" width="128" x="451" y="46" />
  <rect fill="rgb(0,0,0)" height="40" stroke="rgb(0,0,0)" style="filter:url(#filter_blur);opacity:0.7;fill-opacity:1" width="128" x="643" y="46" />
  <path d="M 128 80 L 128 586" fill="none" stroke="rgb(0,0,0)" stroke-dasharray="8 4" />
  <path d="M 320 80 L 320 586" fill="none" stroke="rgb(0,0,0)" stroke-dasharray="8 4" />
  <path d="M 512 80 L 512 586" fill="none" stroke="rgb(0,0,0)" stroke-dasharray="8 4" />
  <path d="M 704 80 L 704 586" fill="none" stroke="rgb(0,0,0)" stroke-dasharray="8 4" />
  <rect fill="rgb(255,255,255)" height="40" stroke="rgb(0,0,0)" width="128" x="64" y="40" />
  <text fill="rgb(0,0,0)" font-family="sans-serif" font-size="11" font-style="normal" font-weight="normal" text-anchor="middle" textLength="60" x="128" y="66">maintainer</text>
  <rect fill="rgb(255,255,255)" height="40" stroke="rgb(0,0,0)" width="128" x="256" y="40" />
  <text fill="rgb(0,0,0)" font-family="sans-serif" font-size="11" font-style="normal" font-weight="normal" text-anchor="middle" textLength="66" x="320" y="53">github.com/</text>
  <text fill="rgb(0,0,0)" font-family="sans-serif" font-size="11" font-style="normal" font-weight="normal" text-anchor="middle" textLength="66" x="320" y="66">machinekit/</text>
  <text fill="rgb(0,0,0)" font-family="sans-serif" font-size="11" font-style="normal" font-weight="normal" text-anchor="middle" textLength="60" x="320" y="79">machinekit</text>
  <rect fill="rgb(255,255,255)" height="40" stroke="rgb(0,0,0)" width="128" x="448" y="40" />
  <text fill="rgb(0,0,0)" font-family="sans-serif" font-size="11" font-style="normal" font-weight="normal" text-anchor="middle" textLength="36" x="512" y="66">travis</text>
  <rect fill="rgb(255,255,255)" height="40" stroke="rgb(0,0,0)" width="128" x="640" y="40" />
  <text fill="rgb(0,0,0)" font-family="sans-serif" font-size="11" font-style="normal" font-weight="normal" text-anchor="middle" textLength="102" x="704" y="66">deb.machinekit.io</text>
  <path d="M 136 135 L 312 135" fill="none" stroke="rgb(0,0,0)" />
  <polygon fill="rgb(0,0,0)" points="304,131 312,135 304,139" stroke="rgb(0,0,0)" />
  <path d="M 328 199 L 504 199" fill="none" stroke="rgb(0,0,0)" />
  <polygon fill="rgb(0,0,0)" points="496,195 504,199 496,203" stroke="rgb(0,0,0)" />
  <polygon fill="rgb(173,216,230)" points="528,185 592,185 600,193 600,213 528,213 528,185" stroke="rgb(0,0,0)" />
  <path d="M 592 185 L 592 193" fill="none" stroke="rgb(0,0,0)" />
  <path d="M 592 193 L 600 193" fill="none" stroke="rgb(0,0,0)" />
  <text fill="rgb(0,0,0)" font-family="sans-serif" font-size="11" font-style="normal" font-weight="normal" text-anchor="middle" textLength="30" x="551" y="198">build</text>
  <text fill="rgb(0,0,0)" font-family="sans-serif" font-size="11" font-style="normal" font-weight="normal" text-anchor="middle" textLength="48" x="560" y="211">packages</text>
  <path d="M 520 268 L 696 268" fill="none" stroke="rgb(0,0,0)" />
  <path d="M 688 264 L 696 268" fill="none" stroke="rgb(0,0,0)" />
  <path d="M 696 268 L 688 272" fill="none" stroke="rgb(0,0,0)" />
  <path d="M 520 353 L 696 353" fill="none" stroke="rgb(0,0,0)" />
  <polygon fill="rgb(0,0,0)" points="528,349 520,353 528,357" stroke="rgb(0,0,0)" />
  <polygon fill="rgb(173,216,230)" points="720,333 778,333 786,341 786,374 720,374 720,333" stroke="rgb(0,0,0)" />
  <path d="M 778 333 L 778 341" fill="none" stroke="rgb(0,0,0)" />
  <path d="M 778 341 L 786 341" fill="none" stroke="rgb(0,0,0)" />
  <text fill="rgb(0,0,0)" font-family="sans-serif" font-size="11" font-style="normal" font-weight="normal" text-anchor="middle" textLength="18" x="737" y="346">new</text>
  <text fill="rgb(0,0,0)" font-family="sans-serif" font-size="11" font-style="normal" font-weight="normal" text-anchor="middle" textLength="42" x="749" y="359">package</text>
  <text fill="rgb(0,0,0)" font-family="sans-serif" font-size="11" font-style="normal" font-weight="normal" text-anchor="middle" textLength="36" x="746" y="372">online</text>
  <path d="M 328 429 L 504 429" fill="none" stroke="rgb(0,0,0)" />
  <polygon fill="rgb(0,0,0)" points="336,425 328,429 336,433" stroke="rgb(0,0,0)" />
  <path d="M 136 509 L 312 509" fill="none" stroke="rgb(0,0,0)" />
  <polygon fill="rgb(0,0,0)" points="144,505 136,509 144,513" stroke="rgb(0,0,0)" />
  <text fill="rgb(0,0,0)" font-family="sans-serif" font-size="11" font-style="normal" font-weight="normal" text-anchor="middle" textLength="48" x="164" y="133">merge PR</text>
  <text fill="rgb(0,0,0)" font-family="sans-serif" font-size="11" font-style="normal" font-weight="normal" text-anchor="middle" textLength="78" x="371" y="197">merge webhook</text>
  <text fill="rgb(0,0,0)" font-family="sans-serif" font-size="11" font-style="normal" font-weight="normal" text-anchor="middle" textLength="60" x="554" y="266">upload deb</text>
  <text fill="rgb(0,0,0)" font-family="sans-serif" font-size="11" font-style="normal" font-weight="normal" text-anchor="middle" textLength="102" x="645" y="351">successful upload</text>
  <text fill="rgb(0,0,0)" font-family="sans-serif" font-size="11" font-style="normal" font-weight="normal" text-anchor="middle" textLength="102" x="453" y="427">set commit status</text>
  <text fill="rgb(0,0,0)" font-family="sans-serif" font-size="11" font-style="normal" font-weight="normal" text-anchor="middle" textLength="120" x="252" y="507">merge result visible</text>
</svg>
